<?xml version="1.0" encoding="UTF-8"?>
<!-- SVG Updated for Laravel Project -->
<svg xmlns="http://www.w3.org/2000/svg" xmlnsXlink="http://www.w3.org/1999/xlink" viewBox="0 0 256 256" width="800px" height="800px" preserveAspectRatio="xMidYMid">
    <g>
        <path d="M255.856,59.62 C255.951,59.971 256,60.333 256,60.697 L256,117.265 C256,118.743 255.209,120.108 253.927,120.843 L206.449,148.179 L206.449,202.36 C206.449,203.834 205.665,205.195 204.387,205.938 L105.279,262.991 C105.052,263.119 104.805,263.202 104.557,263.29 C104.464,263.321 104.377,263.377 104.279,263.403 C103.586,263.585 102.858,263.585 102.165,263.403 C102.051,263.372 101.948,263.31 101.84,263.269 C101.613,263.186 101.376,263.114 101.16,262.991 L2.073,205.938 C0.791,205.202 0,203.837 0,202.36 L0,32.656 C0,32.284 0.052,31.923 0.144,31.573 C0.175,31.454 0.247,31.346 0.289,31.227 C0.366,31.011 0.438,30.789 0.552,30.588 C0.629,30.454 0.742,30.346 0.835,30.222 C0.954,30.057 1.062,29.887 1.201,29.743 C1.32,29.624 1.475,29.536 1.609,29.433 C1.758,29.309 1.892,29.175 2.062,29.077 L2.067,29.077 L51.613,0.551 C52.89,-0.184 54.461,-0.184 55.738,0.551 L105.284,29.078 L105.294,29.078 C105.459,29.181 105.599,29.309 105.748,29.428 C105.882,29.531 106.032,29.624 106.15,29.737 C106.295,29.887 106.398,30.057 106.521,30.222 C106.609,30.346 106.728,30.454 106.8,30.588 C106.918,30.794 106.985,31.011 107.068,31.227 C107.109,31.346 107.181,31.454 107.212,31.578 C107.307,31.929 107.356,32.292 107.357,32.656 L107.357,138.651 L148.643,114.878 L148.643,60.692 C148.643,60.331 148.695,59.965 148.788,59.62 C148.824,59.496 148.891,59.388 148.932,59.269 C149.015,59.053 149.087,58.831 149.2,58.63 C149.277,58.496 149.391,58.388 149.479,58.264 C149.602,58.099 149.705,57.929 149.85,57.784 C149.968,57.666 150.118,57.578 150.252,57.475 C150.407,57.351 150.541,57.217 150.706,57.119 L150.711,57.119 L200.262,28.593 C201.538,27.857 203.11,27.857 204.387,28.593 L253.933,57.119 C254.108,57.222 254.242,57.351 254.397,57.47 C254.525,57.573 254.675,57.666 254.794,57.779 C254.938,57.929 255.041,58.099 255.165,58.264 C255.258,58.388 255.371,58.496 255.443,58.63 C255.562,58.831 255.629,59.053 255.711,59.269 C255.758,59.388 255.825,59.496 255.856,59.62 Z M247.741,114.878 L247.741,67.838 L230.402,77.819 L206.449,91.611 L206.449,138.651 L247.746,114.878 L247.741,114.878 Z M198.195,199.973 L198.195,152.901 L174.633,166.358 L107.352,204.757 L107.352,252.272 L198.195,199.973 Z M8.259,39.796 L8.259,199.973 L99.092,252.267 L99.092,204.762 L51.639,177.906 L51.624,177.896 L51.603,177.886 C51.443,177.793 51.309,177.659 51.16,177.546 C51.031,177.442 50.881,177.36 50.768,177.246 L50.758,177.231 C50.624,177.102 50.531,176.942 50.417,176.798 C50.314,176.659 50.191,176.54 50.108,176.396 L50.103,176.38 C50.01,176.226 49.953,176.04 49.886,175.865 C49.819,175.71 49.732,175.566 49.69,175.401 L49.69,175.396 C49.639,175.2 49.629,174.993 49.608,174.792 C49.587,174.638 49.546,174.483 49.546,174.328 L49.546,174.318 L49.546,63.569 L25.598,49.772 L8.259,39.801 L8.259,39.796 Z M53.681,8.893 L12.399,32.656 L53.671,56.418 L94.947,32.65 L53.671,8.893 L53.681,8.893 Z M75.149,157.191 L99.097,143.405 L99.097,39.796 L81.759,49.778 L57.805,63.569 L57.805,167.177 L75.149,157.191 Z M202.324,36.935 L161.048,60.697 L202.324,84.46 L243.595,60.692 L202.324,36.935 Z M198.195,91.611 L174.241,77.819 L156.903,67.838 L156.903,114.878 L180.851,128.665 L198.195,138.651 L198.195,91.611 Z M103.217,197.617 L163.76,163.053 L194.024,145.781 L152.778,122.034 L105.289,149.375 L62.007,174.292 L103.217,197.617 Z" fill="#FF2D20"/>
    </g>
</svg>
